<svg width="20" height="18" viewBox="0 0 20 18" fill="none" xmlns="http://www.w3.org/2000/svg">
<path d="M19.4589 3.15612C17.6205 2.64839 17.3515 2.3793 16.8437 0.540922C16.7552 0.221158 16.465 0 16.1332 0C15.8015 0 15.5112 0.221158 15.4228 0.540922C14.915 2.3793 14.6468 2.64837 12.8075 3.15612C12.4878 3.24459 12.2666 3.53486 12.2666 3.86659C12.2666 4.19831 12.4878 4.48859 12.8075 4.57705C14.6459 5.08478 14.915 5.35296 15.4228 7.19226C15.5112 7.51202 15.8015 7.73318 16.1332 7.73318C16.465 7.73318 16.7552 7.51202 16.8437 7.19226C17.3514 5.35388 17.6205 5.08481 19.4589 4.57705C19.7787 4.48859 19.9998 4.19831 19.9998 3.86659C19.9998 3.53486 19.7787 3.24459 19.4589 3.15612Z" fill="url(#paint0_linear_4355_21688)"/>
<path d="M9.58366 8.84627C9.58366 10.3207 7.37207 10.3207 7.37207 8.84627C7.37207 7.37188 9.58366 7.37188 9.58366 8.84627Z" fill="url(#paint1_linear_4355_21688)"/>
<path d="M5.16032 8.84627C5.16032 10.3207 2.94873 10.3207 2.94873 8.84627C2.94873 7.37188 5.16032 7.37188 5.16032 8.84627Z" fill="url(#paint2_linear_4355_21688)"/>
<path d="M14.0065 8.84627C14.0065 10.3207 11.7949 10.3207 11.7949 8.84627C11.7949 7.37188 14.0065 7.37188 14.0065 8.84627Z" fill="url(#paint3_linear_4355_21688)"/>
<path d="M2.55804 15.1122H4.05457V17.1386C4.05457 17.4298 4.22596 17.6942 4.4932 17.8122C4.58904 17.8546 4.6904 17.8758 4.79176 17.8758C4.97053 17.8758 5.14838 17.8104 5.28662 17.685L8.1276 15.1123H14.3974C15.8083 15.1123 16.9556 13.965 16.9556 12.5542V9.95194C16.9556 9.54464 16.6257 9.21475 16.2184 9.21475C15.8111 9.21475 15.4812 9.54464 15.4812 9.95194V12.5542C15.4812 13.1513 14.9946 13.6379 14.3975 13.6379H7.84386C7.6614 13.6379 7.48448 13.706 7.349 13.8286L5.52906 15.4762V14.375C5.52906 13.9677 5.19917 13.6379 4.79186 13.6379H2.55814C1.96102 13.6379 1.47444 13.1513 1.47444 12.5542V5.1379C1.47444 4.54079 1.96099 4.05422 2.55814 4.05422H9.95229C10.3596 4.05422 10.6895 3.72433 10.6895 3.31703C10.6895 2.90972 10.3596 2.57983 9.95229 2.57983H2.55814C1.14732 2.57983 0 3.72709 0 5.13795V12.5542C0 13.965 1.14717 15.1122 2.55804 15.1122Z" fill="url(#paint4_linear_4355_21688)"/>
<defs>
<linearGradient id="paint0_linear_4355_21688" x1="12.223" y1="0.434464" x2="20.5503" y2="8.68935" gradientUnits="userSpaceOnUse">
<stop stop-color="#2563EB"/>
<stop offset="1" stop-color="#E345FF"/>
</linearGradient>
<linearGradient id="paint1_linear_4355_21688" x1="7.35961" y1="7.86473" x2="9.74108" y2="10.2255" gradientUnits="userSpaceOnUse">
<stop stop-color="#2563EB"/>
<stop offset="1" stop-color="#E345FF"/>
</linearGradient>
<linearGradient id="paint2_linear_4355_21688" x1="2.93627" y1="7.86473" x2="5.31774" y2="10.2255" gradientUnits="userSpaceOnUse">
<stop stop-color="#2563EB"/>
<stop offset="1" stop-color="#E345FF"/>
</linearGradient>
<linearGradient id="paint3_linear_4355_21688" x1="11.7825" y1="7.86473" x2="14.1639" y2="10.2255" gradientUnits="userSpaceOnUse">
<stop stop-color="#2563EB"/>
<stop offset="1" stop-color="#E345FF"/>
</linearGradient>
<linearGradient id="paint4_linear_4355_21688" x1="-0.0955072" y1="3.43919" x2="16.3031" y2="21.459" gradientUnits="userSpaceOnUse">
<stop stop-color="#2563EB"/>
<stop offset="1" stop-color="#E345FF"/>
</linearGradient>
</defs>
</svg>
