<svg width="54" height="54" viewBox="0 0 54 54" fill="none" xmlns="http://www.w3.org/2000/svg">
<rect width="53.3981" height="53.3981" rx="16" fill="url(#paint0_linear_4355_18030)"/>
<path d="M40.1256 19.2374C37.6574 18.5557 37.2961 18.1944 36.6144 15.7262C36.4956 15.2969 36.1059 15 35.6605 15C35.2152 15 34.8254 15.2969 34.7067 15.7262C34.025 18.1944 33.6649 18.5557 31.1955 19.2374C30.7662 19.3562 30.4692 19.7459 30.4692 20.1912C30.4692 20.6366 30.7662 21.0263 31.1955 21.1451C33.6637 21.8268 34.0249 22.1868 34.7067 24.6563C34.8254 25.0856 35.2152 25.3825 35.6605 25.3825C36.1059 25.3825 36.4956 25.0856 36.6144 24.6563C37.2961 22.1881 37.6574 21.8268 40.1256 21.1451C40.5549 21.0263 40.8518 20.6366 40.8518 20.1912C40.8518 19.7459 40.5549 19.3562 40.1256 19.2374Z" fill="white"/>
<path d="M26.867 26.877C26.867 28.8564 23.8977 28.8564 23.8977 26.877C23.8977 24.8975 26.867 24.8975 26.867 26.877Z" fill="white"/>
<path d="M20.9285 26.877C20.9285 28.8564 17.9592 28.8564 17.9592 26.877C17.9592 24.8975 20.9285 24.8975 20.9285 26.877Z" fill="white"/>
<path d="M32.8054 26.877C32.8054 28.8564 29.8362 28.8564 29.8362 26.877C29.8362 24.8975 32.8054 24.8975 32.8054 26.877Z" fill="white"/>
<path d="M17.4344 35.2898H19.4436V38.0103C19.4436 38.4013 19.6737 38.7563 20.0325 38.9147C20.1612 38.9716 20.2973 39.0001 20.4334 39.0001C20.6734 39.0001 20.9122 38.9122 21.0978 38.744L24.912 35.2898H33.3299C35.224 35.2898 36.7644 33.7495 36.7644 31.8553V28.3616C36.7644 27.8148 36.3215 27.3719 35.7747 27.3719C35.2278 27.3719 34.7849 27.8148 34.7849 28.3616V31.8553C34.7849 32.657 34.1317 33.3103 33.3299 33.3103H24.5311C24.2861 33.3103 24.0486 33.4018 23.8667 33.5664L21.4233 35.7785V34.3C21.4233 33.7532 20.9804 33.3103 20.4335 33.3103H17.4345C16.6328 33.3103 15.9796 32.657 15.9796 31.8553V21.8983C15.9796 21.0966 16.6328 20.4434 17.4345 20.4434H27.3619C27.9087 20.4434 28.3516 20.0005 28.3516 19.4536C28.3516 18.9068 27.9087 18.4639 27.3619 18.4639H17.4345C15.5404 18.4639 14 20.0042 14 21.8984V31.8554C14 33.7495 15.5402 35.2898 17.4344 35.2898Z" fill="white"/>
<defs>
<linearGradient id="paint0_linear_4355_18030" x1="-0.30078" y1="3" x2="57.1992" y2="60" gradientUnits="userSpaceOnUse">
<stop stop-color="#2563EB"/>
<stop offset="1" stop-color="#E345FF"/>
</linearGradient>
</defs>
</svg>
