<svg width="80" height="80" viewBox="0 0 80 80" fill="none" xmlns="http://www.w3.org/2000/svg">
<rect opacity="0.2" width="60.7392" height="62.2206" rx="30.3696" fill="#9848B0"/>
<rect x="19.2607" y="17.7773" width="60.7392" height="62.2206" rx="30.3696" fill="#9848B0"/>
<path d="M54.7501 45.9952V52.75C54.7501 55.6449 52.395 58 49.5 58C46.605 58 44.25 55.645 44.25 52.75V45.9952C44.25 44.7568 45.2569 43.7499 46.4953 43.7499H52.5047C53.7432 43.7499 54.7501 44.7568 54.7501 45.9952ZM49.5 40C47.9475 40 46.62 40.945 46.0426 42.28C46.1926 42.2575 46.3426 42.25 46.4926 42.25H52.5075C52.6575 42.25 52.8075 42.2575 52.9575 42.28C52.38 40.945 51.0525 40 49.5 40ZM42.75 49.75V51.25H39.75C39.3375 51.25 39 50.9125 39 50.5C39 50.0875 39.3375 49.75 39.75 49.75H42.75ZM43.215 55.21C42.015 55.5775 41.0025 56.4175 40.4176 57.5875C40.2901 57.85 40.0276 58 39.7501 58C39.6376 58 39.5251 57.9775 39.4126 57.9175C39.0451 57.7375 38.8951 57.2875 39.0826 56.9125C39.8626 55.3525 41.2201 54.2351 42.8252 53.7625C42.9002 54.265 43.035 54.7525 43.215 55.21ZM42.7725 45.6326C42.7575 45.7526 42.75 45.8726 42.75 45.9926V47.2151C41.175 46.7276 39.8474 45.6251 39.0825 44.0876C38.895 43.7126 39.045 43.2626 39.4125 43.0826C39.7876 42.8951 40.2376 43.0451 40.4176 43.4126C40.9276 44.4326 41.7675 45.2051 42.7725 45.6326ZM60 50.5C60 50.9125 59.6625 51.25 59.25 51.25H56.25V49.75H59.25C59.6625 49.75 60 50.0875 60 50.5ZM59.5875 57.9174C59.475 57.9774 59.3625 57.9999 59.25 57.9999C58.9725 57.9999 58.71 57.8499 58.5825 57.5874C57.9975 56.4174 56.985 55.5774 55.7851 55.2099C55.9651 54.7525 56.1001 54.2649 56.1751 53.7625C57.7801 54.235 59.1376 55.3525 59.9176 56.9125C60.1051 57.2875 59.955 57.7374 59.5875 57.9174ZM59.9175 44.0874C59.1525 45.6249 57.825 46.7274 56.25 47.2149V45.9924C56.25 45.8724 56.2425 45.7524 56.2275 45.6324C57.2325 45.2049 58.0725 44.4324 58.5825 43.4124C58.7625 43.0449 59.2125 42.8949 59.5875 43.0824C59.955 43.2624 60.105 43.7124 59.9175 44.0874Z" fill="white"/>
</svg>
