<svg width="80" height="80" viewBox="0 0 80 80" fill="none" xmlns="http://www.w3.org/2000/svg">
<rect opacity="0.2" width="60.7392" height="62.2206" rx="16" fill="#6863FF"/>
<rect x="19.2607" y="17.7773" width="60.7392" height="62.2206" rx="16" fill="#635FD1"/>
<path fill-rule="evenodd" clip-rule="evenodd" d="M36.6101 32.8867H62.6494C64.2889 32.8867 65.6296 34.2275 65.6296 35.867V38.9419H33.63V35.867C33.63 34.2275 34.9707 32.8867 36.6101 32.8867ZM65.6294 40.0078V61.9063C65.6294 63.5458 64.2886 64.8866 62.6492 64.8866H36.6099C34.9704 64.8866 33.6296 63.5458 33.6296 61.9063V40.0078H65.6294ZM61.3361 35.2301C60.8269 35.2301 60.415 35.6433 60.415 36.1512C60.415 36.6604 60.8282 37.0722 61.3361 37.0722C61.8453 37.0722 62.2571 36.659 62.2571 36.1512C62.2571 35.642 61.8439 35.2301 61.3361 35.2301ZM57.1781 35.2301C56.6689 35.2301 56.2571 35.6433 56.2571 36.1512C56.2571 36.6604 56.6702 37.0722 57.1781 37.0722C57.6873 37.0722 58.0992 36.659 58.0992 36.1512C58.1005 35.642 57.6873 35.2301 57.1781 35.2301ZM53.0215 35.2301C52.5124 35.2301 52.1005 35.6433 52.1005 36.1512C52.1005 36.6604 52.5137 37.0722 53.0215 37.0722C53.5307 37.0722 53.9426 36.659 53.9426 36.1512C53.9426 35.642 53.5307 35.2301 53.0215 35.2301ZM58.669 43.6049C58.9045 43.2641 58.6742 42.7865 58.2506 42.772L56.7782 42.7154C56.3848 42.701 56.1019 43.1181 56.2848 43.4838L56.3585 43.6312L41.1283 50.7904C40.8626 50.914 40.7481 51.2311 40.8718 51.4969C40.9955 51.7627 41.3126 51.8772 41.5784 51.7535L56.8334 44.5826L56.9071 44.7299C57.0953 45.1299 57.6058 45.1431 57.8308 44.8181L58.669 43.6049ZM55.4888 47.2667V62.3745H60.0492V47.2667H55.4888ZM47.3494 51.4115V62.3745H51.9098V51.4115H47.3494ZM39.21 56.0245V62.3756H43.7705L43.7692 56.0245H39.21Z" fill="white"/>
</svg>
