<svg width="17" height="18" viewBox="0 0 17 18" fill="none" xmlns="http://www.w3.org/2000/svg">
<path d="M8.35059 2.71387C8.35057 2.32626 8.19596 1.95475 7.92188 1.68066C7.64778 1.40659 7.27628 1.25195 6.88867 1.25195C6.50106 1.25196 6.12956 1.40658 5.85547 1.68066C5.58139 1.95475 5.42677 2.32626 5.42676 2.71387C5.42676 3.19153 5.65543 3.61607 6.01172 3.88379C6.28831 4.09157 6.3445 4.48415 6.13672 4.76074C5.9289 5.03719 5.5363 5.09251 5.25977 4.88477C4.78229 4.52603 4.42689 4.01191 4.26758 3.41699C4.12311 3.45967 3.98376 3.52006 3.85254 3.59668C3.56479 3.76474 3.32672 4.00658 3.16309 4.29688C2.99949 4.58714 2.9157 4.91587 2.9209 5.24902C2.92614 5.58196 3.01998 5.90751 3.19238 6.19238C3.29851 6.36763 3.3126 6.58423 3.22949 6.77148C3.14638 6.95874 2.97654 7.09297 2.77539 7.13184C2.34681 7.21469 1.96053 7.44464 1.68262 7.78125C1.40465 8.11807 1.25195 8.5418 1.25195 8.97852C1.25203 9.4151 1.40472 9.83807 1.68262 10.1748C1.87896 10.4127 2.12984 10.5959 2.41113 10.7129C2.7677 10.2913 3.23076 9.96841 3.75684 9.78223C4.08275 9.66697 4.44007 9.83734 4.55566 10.1631C4.67105 10.4891 4.50076 10.8474 4.1748 10.9629C3.76505 11.1079 3.41816 11.3907 3.19336 11.7627L3.19238 11.7637C3.02013 12.0486 2.92702 12.3742 2.92188 12.707C2.91675 13.0401 3.00045 13.369 3.16406 13.6592C3.32762 13.9491 3.56511 14.1904 3.85254 14.3584C4.1402 14.5264 4.46764 14.6153 4.80078 14.6152C4.96682 14.6152 5.12572 14.6815 5.24316 14.7988C5.36056 14.9162 5.42666 15.0752 5.42676 15.2412C5.42676 15.6288 5.58137 16.0013 5.85547 16.2754C6.12953 16.5493 6.50119 16.7031 6.88867 16.7031C7.27615 16.7031 7.64781 16.5493 7.92188 16.2754C8.19597 16.0013 8.35059 15.6288 8.35059 15.2412V2.71387ZM13.1523 12.5273L13.2754 12.5391C13.3958 12.5631 13.5076 12.6228 13.5957 12.7109L14.708 13.8232C14.8126 13.7952 14.9211 13.7803 15.0312 13.7803C15.3635 13.7803 15.683 13.9115 15.918 14.1465C16.1529 14.3814 16.2842 14.701 16.2842 15.0332C16.2841 15.3653 16.1528 15.6841 15.918 15.9189C15.683 16.1539 15.3635 16.2852 15.0312 16.2852C14.6991 16.285 14.3803 16.1538 14.1455 15.9189C13.9107 15.6841 13.7794 15.3653 13.7793 15.0332C13.7793 14.9228 13.7942 14.8138 13.8223 14.709L12.8936 13.7803H11.4824C11.1365 13.7803 10.8555 13.4993 10.8555 13.1533C10.8556 12.8075 11.1366 12.5273 11.4824 12.5273H13.1523ZM15.0312 7.72461C15.3635 7.72461 15.683 7.85686 15.918 8.0918C16.1528 8.32667 16.2841 8.64544 16.2842 8.97754C16.2842 9.30961 16.1527 9.62838 15.918 9.86328C15.683 10.0982 15.3635 10.2305 15.0312 10.2305C14.6991 10.2304 14.3803 10.0981 14.1455 9.86328C14.0679 9.78564 14.0033 9.69787 13.9492 9.60449H11.4824C11.1365 9.60449 10.8555 9.32348 10.8555 8.97754C10.8556 8.63169 11.1365 8.35156 11.4824 8.35156H13.9482C14.0024 8.25778 14.0676 8.16973 14.1455 8.0918C14.3803 7.85696 14.6991 7.72472 15.0312 7.72461ZM15.0312 1.66992C15.3635 1.66992 15.683 1.80217 15.918 2.03711C16.1527 2.27202 16.2842 2.59076 16.2842 2.92285C16.2841 3.25496 16.1527 3.57371 15.918 3.80859C15.683 4.04353 15.3635 4.17578 15.0312 4.17578C14.921 4.17574 14.8127 4.15891 14.708 4.13086L13.5957 5.24512C13.4782 5.36256 13.3185 5.42871 13.1523 5.42871H11.4824C11.1365 5.42871 10.8555 5.1477 10.8555 4.80176C10.8555 4.45586 11.1365 4.17578 11.4824 4.17578H12.8936L13.8223 3.24609C13.7943 3.14147 13.7793 3.03302 13.7793 2.92285C13.7793 2.59073 13.9107 2.27202 14.1455 2.03711C14.3803 1.80227 14.6991 1.67003 15.0312 1.66992ZM9.60254 15.2412C9.60254 15.9611 9.31665 16.6521 8.80762 17.1611C8.29861 17.67 7.60841 17.9561 6.88867 17.9561C6.16893 17.956 5.47873 17.67 4.96973 17.1611C4.59821 16.7896 4.34575 16.3211 4.23633 15.8154C3.88004 15.7501 3.53595 15.6246 3.2207 15.4404C2.74135 15.1604 2.34494 14.758 2.07227 14.2744C1.79957 13.7908 1.66041 13.2427 1.66895 12.6875C1.67356 12.3901 1.72084 12.0963 1.80762 11.8145C1.38882 11.6188 1.0141 11.334 0.71582 10.9727C0.252692 10.4115 8.14508e-05 9.70612 0 8.97852C0 8.25092 0.252774 7.5456 0.71582 6.98438C1.01423 6.62279 1.38858 6.33626 1.80762 6.14062C1.72094 5.85905 1.67361 5.5657 1.66895 5.26855C1.66028 4.71332 1.79866 4.1654 2.07129 3.68164C2.34401 3.19782 2.74112 2.79475 3.2207 2.51465C3.53599 2.33055 3.88001 2.20487 4.23633 2.13965C4.34579 1.63411 4.59831 1.16634 4.96973 0.794922C5.47875 0.285902 6.1688 5.30452e-06 6.88867 0C7.60854 0 8.29859 0.28591 8.80762 0.794922C9.31664 1.30394 9.60253 1.994 9.60254 2.71387V15.2412Z" fill="#7A7A7A"/>
</svg>
